<svg version="1.1" id="Layer_1" xmlns="http://www.w3.org/2000/svg" xmlns:xlink="http://www.w3.org/1999/xlink" x="0px" y="0px"
	 width="100%" viewBox="0 0 480 209" enable-background="new 0 0 480 209" xml:space="preserve">
<path fill="#F0F1F0" opacity="1.000000" stroke="none" 
	d="
M1.000001,172.000000 
	C1.000000,115.036407 1.000000,58.072823 1.000000,1.054616 
	C161.000000,1.054616 321.000000,1.054616 481.000000,1.054616 
	C481.000000,12.076783 481.000000,23.069733 480.674103,34.428108 
	C478.589813,31.140055 476.235352,30.340002 472.844482,32.962650 
	C471.591827,33.931519 469.755585,34.159630 468.538422,35.156490 
	C467.429413,36.064762 465.825867,37.910881 466.124329,38.729919 
	C467.435699,42.328613 465.202911,44.166019 463.265381,46.375866 
	C461.293274,48.625156 459.517883,51.047405 457.666016,53.401520 
	C455.003082,56.786633 452.348907,60.178623 450.027863,63.138172 
	C449.025726,54.270531 448.613647,45.446255 446.881775,36.889091 
	C445.417816,29.655668 442.588165,28.918039 436.258514,32.481117 
	C434.966309,33.208549 433.693451,33.970352 432.411652,34.716305 
	C432.548676,34.301575 432.685669,33.886845 432.822662,33.472115 
	C430.838104,32.426128 428.617310,30.219868 426.916229,30.566216 
	C422.887115,31.386568 419.244751,34.733513 414.849121,31.471565 
	C414.610504,31.294479 413.577454,32.321480 412.850098,32.642811 
	C411.105286,33.413612 409.380249,34.359150 407.543488,34.766918 
	C402.524475,35.881172 397.389069,36.507698 392.414246,37.776436 
	C383.505005,40.048576 380.969086,45.722698 385.148193,53.783146 
	C385.796356,55.033276 387.395264,55.790493 388.554443,56.775658 
	C388.943451,55.186871 389.965729,53.426250 389.590881,52.044758 
	C388.787506,49.084080 388.827850,46.362736 391.749329,45.211788 
	C396.625458,43.290768 401.759155,42.023449 407.644684,40.216885 
	C403.469666,48.500816 399.965576,55.458733 396.453522,62.412632 
	C396.155273,63.003128 395.929016,63.925400 395.458618,64.089439 
	C387.649323,66.812813 388.502960,73.421890 388.094543,79.370338 
	C392.403900,82.301338 394.294373,80.067131 395.980377,76.585182 
	C400.613342,67.017342 405.547913,57.593487 410.070160,47.974918 
	C412.566040,42.666355 415.928040,39.556229 422.204956,39.940186 
	C426.170471,40.182755 430.476166,40.359154 434.105347,39.079407 
	C437.829224,37.766277 439.297363,38.152607 439.982635,41.902897 
	C442.004883,52.969578 442.311401,63.968750 439.413055,74.982056 
	C439.011963,76.506149 439.658752,79.030388 440.771301,79.995621 
	C441.636902,80.746582 444.135193,80.135422 445.616455,79.475548 
	C446.616364,79.030128 447.111603,77.448616 447.829163,76.373024 
	C457.413025,62.007595 467.172760,47.790447 481.000000,37.000000 
	C481.000000,94.630035 481.000000,152.260071 481.000000,209.945053 
	C321.000000,209.945053 161.000000,209.945053 1.000000,209.945053 
	C1.000000,198.255875 1.000000,186.596588 1.335905,174.586685 
	C4.927818,175.839951 8.103256,177.644638 11.462065,178.992325 
	C14.954710,180.393723 15.463837,182.727356 14.823395,186.060196 
	C13.895954,190.886612 13.288011,195.774399 12.384570,201.676025 
	C30.046095,190.591492 47.286026,180.985397 66.361702,174.423309 
	C69.631691,173.593872 72.542084,172.684631 75.651009,171.713348 
	C76.579048,173.976883 77.380844,175.932510 78.259895,178.076553 
	C80.712357,176.526886 83.050316,175.049561 85.507553,173.496887 
	C86.917740,176.369370 88.190147,178.961227 89.570351,181.772659 
	C92.002136,179.528122 94.108505,177.583954 96.228645,175.627075 
	C98.083992,178.539429 99.576050,180.881500 101.202499,183.434555 
	C103.361649,180.905197 105.167122,178.790161 107.176125,176.436691 
	C109.309212,178.944656 111.151459,181.110687 113.202293,183.521942 
	C115.083260,180.556168 116.562050,178.224518 118.105400,175.791077 
	C120.474457,178.005798 122.600029,179.992905 125.002457,182.238815 
	C126.622192,179.069931 128.002289,176.369873 129.446793,173.543777 
	C132.111069,175.448593 134.348587,177.048294 136.710327,178.736801 
	C137.446671,176.299698 138.096008,174.150513 138.742508,172.010757 
	C140.773575,172.388199 142.380249,172.686768 144.234024,173.256058 
	C165.151291,179.107513 183.413330,189.813614 201.925125,200.728622 
	C201.118423,195.015808 200.161484,189.645630 199.727219,184.233505 
	C199.609955,182.772141 200.672897,180.556351 201.892471,179.770035 
	C205.682938,177.326141 209.808823,175.402466 214.331116,172.996902 
	C212.205246,171.606415 210.749969,170.531036 209.184814,169.651093 
	C199.838593,164.396484 190.467026,159.186920 180.937057,153.645065 
	C179.335144,149.477386 182.738876,143.615082 174.130096,142.284424 
	C177.790741,141.632248 179.547028,141.319351 181.677460,140.939789 
	C180.298706,137.984131 179.074326,135.359375 177.765030,132.552628 
	C181.089050,131.574219 183.985840,130.721558 187.028595,129.825943 
	C185.310654,127.111191 183.907745,124.894257 182.322922,122.389885 
	C185.254135,121.056450 187.860992,119.870575 190.667465,118.593887 
	C188.437500,116.145515 186.483673,114.000313 184.391312,111.703011 
	C187.580322,109.884300 190.218185,108.379913 193.139893,106.713654 
	C190.473358,104.573273 188.327545,102.850876 185.972870,100.960831 
	C188.584091,98.836617 190.846375,96.996269 193.451584,94.876945 
	C190.641891,92.992889 188.218338,91.367760 184.572891,88.923279 
	C187.408524,87.047386 189.885513,85.408737 192.931183,83.393890 
	C188.957870,81.347290 186.283127,79.969559 182.515884,78.029099 
	C185.612244,75.716805 188.003113,73.931351 191.142395,71.587013 
	C186.768555,70.092560 183.793640,69.076088 180.607590,67.987480 
	C182.272507,65.108322 183.618744,62.780266 185.174164,60.090462 
	C181.562881,59.569221 178.613052,59.143452 175.575974,58.705086 
	C176.711746,55.705471 177.844345,52.714218 179.170776,49.211040 
	C175.500397,49.211040 172.708282,49.211040 169.580887,49.211040 
	C170.035004,46.072918 170.443649,43.249111 170.869781,40.304348 
	C167.627945,40.611992 164.938522,40.867214 161.924423,41.153248 
	C162.128693,37.754776 162.300034,34.904003 162.488663,31.765705 
	C159.206543,32.627220 156.410477,33.361156 153.498840,34.125427 
	C153.130341,30.797173 152.818497,27.980448 152.476959,24.895723 
	C149.396149,26.328081 147.055023,27.416536 144.395279,28.653128 
	C143.723495,25.119585 143.179398,22.257687 142.571259,19.058937 
	C139.712189,20.769026 137.094025,22.335028 134.458542,23.911388 
	C133.241867,20.819330 132.171814,18.099865 130.996368,15.112569 
	C128.366608,16.991325 126.124252,18.593307 123.775925,20.270998 
	C122.202255,17.716845 120.774132,15.398914 118.792999,12.183424 
	C116.548866,14.824986 114.771454,16.917181 112.829094,19.203529 
	C110.954323,16.576666 109.287140,14.240665 107.448105,11.663874 
	C105.445129,14.485970 103.768440,16.848351 102.199089,19.059494 
	C99.557243,16.684240 97.273010,14.630509 94.749695,12.361826 
	C93.483170,15.232007 92.243118,18.042183 90.939850,20.995621 
	C88.271095,18.816826 85.918900,16.896473 83.400330,14.840290 
	C82.182678,18.168083 81.173897,20.925041 80.049904,23.996864 
	C77.274185,22.229330 74.752792,20.623741 71.838203,18.767771 
	C71.373642,22.387516 71.004616,25.262920 70.566605,28.675804 
	C67.269516,27.105022 64.513412,25.791973 61.147865,24.188578 
	C61.147865,27.851587 61.147865,30.919153 61.147865,34.357063 
	C57.842609,33.439091 55.070961,32.669315 51.855785,31.776361 
	C52.124508,35.399681 52.349270,38.430267 52.591381,41.694759 
	C49.217125,41.083443 46.374676,40.568474 43.173477,39.988506 
	C43.928501,43.257969 44.571030,46.040295 45.376591,49.528606 
	C41.814163,49.528606 38.951771,49.528606 35.718513,49.528606 
	C37.040989,52.908142 38.106056,55.629868 39.225349,58.490185 
	C35.869957,59.113583 32.999565,59.646870 29.705650,60.258846 
	C31.332445,63.181076 32.723049,65.679031 34.165833,68.270721 
	C30.668715,69.383041 27.836159,70.283989 24.690905,71.284393 
	C26.775133,73.762070 28.625090,75.961243 30.596426,78.304718 
	C27.594229,79.898750 25.142883,81.200302 21.022820,83.387871 
	C24.174238,85.249519 26.617477,86.692825 29.423321,88.350334 
	C26.027746,91.269623 23.845882,93.145447 21.495552,95.166107 
	C23.830477,97.221786 25.885351,99.030907 28.072786,100.956726 
	C25.685589,103.047943 23.651115,104.830170 21.301586,106.888390 
	C24.588655,108.827187 27.237707,110.389664 31.185944,112.718437 
	C28.292709,115.018555 26.028786,116.818375 23.371349,118.931038 
	C26.624517,120.131783 29.215996,121.088295 32.264050,122.213326 
	C30.623465,124.888565 29.186548,127.231689 27.579428,129.852356 
	C30.681234,130.717392 33.486485,131.499725 36.493649,132.338379 
	C35.154968,135.292587 33.953808,137.943329 32.581001,140.972855 
	C35.208618,141.358566 37.327873,141.669647 39.447124,141.980728 
	C33.978207,144.039993 33.717548,148.324280 33.628483,153.007568 
	C22.541842,159.437073 11.770921,165.718536 1.000001,172.000000 
M225.209717,59.620220 
	C231.662766,59.839939 242.142731,50.904980 244.151794,43.470692 
	C246.017334,36.567413 240.069687,29.928070 232.983276,30.796328 
	C230.353897,31.118492 227.651947,30.848406 225.283249,30.848406 
	C221.577133,32.808998 217.705994,34.801418 213.888763,36.892265 
	C210.251053,38.884781 206.496796,40.730751 203.101349,43.084782 
	C197.070923,47.265617 196.083099,52.039738 199.643021,58.575455 
	C200.167755,59.538795 201.517746,60.052635 202.485901,60.774448 
	C203.017746,59.690971 203.936859,58.636086 204.019287,57.519432 
	C204.601303,49.636078 210.030533,44.073536 219.264008,43.477642 
	C216.635544,46.098141 214.695801,47.921825 212.900497,49.878063 
	C212.217972,50.621807 211.693588,51.618092 211.401611,52.590679 
	C210.773010,54.684628 210.395264,56.852406 209.819763,58.964054 
	C208.182297,64.972214 200.710373,66.191040 198.982040,72.429428 
	C198.133926,75.490662 196.428467,78.247787 199.940643,80.183372 
	C203.528473,82.160683 204.426361,78.389404 205.770111,76.473122 
	C208.943588,71.947502 211.782120,67.187012 214.572159,62.810081 
	C220.159485,70.441620 225.210724,77.861053 230.810257,84.840614 
	C236.237976,91.606049 241.800110,90.613983 245.378967,82.643196 
	C245.726700,81.868706 245.881409,80.479317 245.446793,80.025299 
	C244.980652,79.538353 243.414581,79.413712 242.842728,79.832726 
	C239.576904,82.225693 237.363647,80.327560 235.683151,77.947533 
	C231.577011,72.132187 227.741684,66.125633 224.134964,59.863457 
	C224.134964,59.863457 224.462463,59.520924 225.209717,59.620220 
M299.149414,56.126431 
	C299.299500,56.250343 299.449554,56.374260 299.433289,57.209877 
	C297.274109,62.784584 295.065979,68.340996 292.973602,73.940666 
	C291.660492,77.454926 293.769958,79.638092 296.669037,80.283554 
	C297.914886,80.560936 300.184052,78.729942 301.136902,77.292473 
	C302.862274,74.689545 304.225098,71.751892 305.180084,68.774612 
	C305.622620,67.394997 304.751678,65.594070 304.476227,63.984150 
	C303.803284,63.853928 303.130341,63.723705 302.457397,63.593479 
	C306.940430,55.666573 311.287537,47.657101 316.012482,39.877106 
	C317.052826,38.164062 319.528168,37.372864 321.157837,35.945992 
	C321.962128,35.241795 323.024628,33.849216 322.803528,33.123711 
	C321.719788,29.567858 315.946045,28.520515 313.437988,31.354336 
	C304.509613,41.442539 295.624420,51.569126 286.765411,61.718357 
	C285.945099,62.658154 285.426971,63.861771 284.147919,65.961952 
	C282.881531,60.922291 282.365387,57.645683 281.222656,54.604538 
	C279.465546,49.928585 279.472137,45.696735 282.549927,41.533218 
	C283.494568,40.255383 284.364838,38.408878 284.184448,36.957642 
	C284.004089,35.507011 282.466095,34.225174 281.523224,32.869335 
	C280.585846,33.765625 279.398560,34.517078 278.774078,35.594685 
	C277.982941,36.959770 277.649323,38.589989 277.008667,40.419193 
	C269.409180,30.398380 267.476837,29.114124 263.108429,30.941725 
	C258.445404,32.892578 253.968292,39.058674 254.689804,43.756115 
	C256.834167,42.219479 258.474731,40.638718 260.431580,39.772373 
	C261.941620,39.103851 264.364197,38.550446 265.491058,39.294239 
	C270.817719,42.810169 272.056030,49.331253 268.809479,54.774189 
	C267.276855,57.343658 265.835327,60.023014 263.937500,62.307877 
	C259.554291,67.584999 254.917725,72.651665 249.772614,78.498360 
	C251.553436,79.504211 254.111649,82.037735 255.464722,81.505814 
	C259.265930,80.011459 262.576599,77.263176 266.052063,74.966019 
	C266.213470,74.859329 266.174255,74.313919 266.099060,74.004303 
	C264.308258,66.634361 271.246460,63.643665 273.173218,58.143955 
	C273.709503,58.242176 274.245789,58.340401 274.782074,58.438622 
	C275.555817,66.287148 276.329559,74.135674 277.103302,81.984200 
	C277.669281,82.042061 278.235260,82.099915 278.801208,82.157776 
	C280.402618,80.782898 282.412689,79.668739 283.499237,77.965446 
	C284.782166,75.954330 284.792328,73.082108 286.187500,71.201210 
	C290.139221,65.873650 294.516052,60.861423 299.149414,56.126431 
M399.576660,99.964828 
	C399.576660,111.395958 399.576660,122.827087 399.576660,134.293869 
	C403.012238,134.293869 405.873016,134.293869 408.796265,134.293869 
	C408.796265,125.274567 408.796265,116.690498 408.796265,108.106430 
	C412.568787,115.525986 415.237335,123.158295 418.196533,130.676193 
	C418.814331,132.245758 420.398651,134.410904 421.721558,134.549881 
	C426.287567,135.029526 430.934937,134.734528 435.716309,134.734528 
	C435.716309,122.185715 435.716309,110.177689 435.716309,98.149597 
	C432.580536,98.149597 429.824951,98.149597 427.021545,98.149597 
	C427.021545,107.069221 427.021545,115.697929 427.021545,124.326645 
	C426.676727,124.415863 426.331879,124.505081 425.987061,124.594307 
	C422.608215,115.711945 419.229370,106.829582 415.605316,97.302528 
	C410.221527,97.894913 404.943451,98.475655 399.576660,99.964828 
M321.820374,64.177238 
	C321.259125,65.146477 320.912964,66.384392 320.098053,67.036850 
	C317.116913,69.423698 314.045837,71.713654 310.879547,73.848686 
	C308.496918,75.455276 306.315460,76.992538 308.357574,80.192856 
	C310.228394,83.124779 312.388641,82.060806 314.744568,80.652077 
	C316.569092,79.561104 318.674805,78.947823 320.630768,78.067184 
	C322.404938,77.268402 325.088074,76.781883 325.635895,75.446236 
	C326.183197,74.111870 324.578583,71.894905 323.881836,69.966644 
	C330.346100,64.445831 335.394409,63.046024 342.823853,64.740532 
	C342.445770,68.883400 341.816437,73.004166 341.848022,77.119865 
	C341.857513,78.358978 344.136536,80.800774 344.640900,80.621674 
	C348.445251,79.270782 352.309082,77.694878 354.336731,73.141220 
	C352.479980,72.676254 351.156494,72.344826 349.527130,71.936790 
	C351.449554,59.820770 355.455536,48.458378 360.367584,37.362984 
	C361.304352,35.246971 361.984009,33.017128 362.782257,30.839800 
	C360.278259,31.667953 357.771637,32.488323 355.273682,33.334339 
	C354.969879,33.437229 354.712860,33.678127 355.337708,33.281441 
	C352.677002,33.281441 350.785156,32.855915 349.206543,33.377785 
	C346.619965,34.232868 344.347504,36.096485 341.744019,36.829529 
	C336.963074,38.175659 331.960785,38.743340 327.192932,40.125908 
	C321.797424,41.690479 319.820587,48.030788 323.232941,52.509216 
	C323.663269,53.073971 326.795135,52.506905 326.808411,52.326694 
	C327.106934,48.274017 329.616669,46.591278 333.176239,45.695038 
	C336.348755,44.896244 339.464203,43.870956 342.604828,42.945621 
	C342.819977,43.380192 343.035126,43.814766 343.250244,44.249336 
	C336.872681,48.913223 333.943298,57.428539 325.036926,59.408714 
	C323.752441,59.694286 322.923340,62.028179 321.820374,64.177238 
M242.366058,97.860641 
	C239.232040,97.860641 236.098007,97.860641 232.754517,97.860641 
	C232.754517,110.328812 232.754517,122.383186 232.754517,134.333344 
	C235.970718,134.333344 238.862473,134.333344 241.991821,134.333344 
	C241.991821,125.686676 241.991821,117.426987 241.991821,109.167297 
	C245.811020,116.579369 248.589203,124.148132 251.542023,131.648148 
	C252.004745,132.823471 253.211945,134.500641 254.158081,134.557327 
	C259.060242,134.851059 263.989410,134.693909 268.824402,134.693909 
	C268.824402,122.034233 268.824402,110.129448 268.824402,98.239151 
	C265.628662,98.239151 262.746765,98.239151 259.518372,98.239151 
	C259.518372,107.271454 259.518372,115.928558 259.518372,124.585663 
	C256.042999,117.448326 252.906525,110.333450 250.677689,102.944771 
	C249.406097,98.729416 247.410522,97.174431 242.366058,97.860641 
M350.292511,99.258705 
	C346.467346,103.269966 345.240723,109.775566 338.166748,112.560776 
	C338.166748,106.889404 338.166748,102.505348 338.166748,98.106659 
	C334.791504,98.106659 332.032990,98.106659 329.212677,98.106659 
	C329.212677,110.371048 329.212677,122.390305 329.212677,134.410950 
	C332.364136,134.410950 335.117584,134.410950 338.244141,134.410950 
	C338.244141,130.640396 338.142181,127.158302 338.300720,123.688118 
	C338.354492,122.511368 339.066162,121.364685 339.477142,120.204262 
	C340.699860,120.868477 342.240906,121.262321 343.081055,122.251488 
	C345.011536,124.524338 346.607086,127.082596 348.327057,129.533096 
	C352.307281,135.203796 356.047638,136.292358 363.024109,133.673279 
	C359.321167,128.713165 355.773041,123.697647 351.925934,118.923019 
	C350.123291,116.685730 350.181946,115.100937 351.898132,112.859253 
	C355.463287,108.202423 358.725647,103.313812 362.866730,97.452965 
	C357.892914,97.925156 354.331299,98.263275 350.292511,99.258705 
M291.693817,125.460823 
	C291.693817,128.403763 291.693817,131.346695 291.693817,134.329529 
	C295.134613,134.329529 297.999817,134.329529 301.421570,134.329529 
	C301.421570,129.392761 301.421570,124.843224 301.421570,120.293694 
	C301.976318,119.970100 302.531036,119.646507 303.085785,119.322922 
	C305.516754,122.357315 308.575745,125.083473 310.247894,128.490311 
	C313.719360,135.562943 319.324249,135.306107 326.226624,134.274780 
	C322.254120,128.945923 318.750244,123.957008 314.921112,119.231613 
	C313.022156,116.888199 312.831451,115.190605 314.751617,112.734947 
	C318.290131,108.209656 321.471771,103.405319 325.120361,98.269287 
	C318.351746,97.303322 312.639679,96.787170 309.669220,104.042648 
	C308.807037,106.148575 307.293854,108.078644 305.737427,109.776062 
	C304.785370,110.814377 303.182953,111.256348 300.959290,112.460846 
	C300.959290,106.733734 300.959290,102.469528 300.959290,98.208549 
	C297.651459,98.208549 294.770416,98.208549 291.693726,98.208549 
	C291.693726,107.193291 291.693726,115.833229 291.693817,125.460823 
M391.545837,114.587440 
	C390.736969,114.003571 389.964050,112.987007 389.112549,112.916290 
	C386.469055,112.696693 383.795776,112.841858 381.134033,112.835388 
	C374.965088,112.820396 374.716858,112.496635 376.245636,105.585709 
	C381.445160,105.585709 386.819672,105.585709 392.186035,105.585709 
	C392.186035,102.628525 392.186035,100.393349 392.186035,98.272705 
	C383.269867,98.272705 374.722412,98.272705 366.329254,98.272705 
	C366.329254,110.575691 366.329254,122.460182 366.329254,134.342682 
	C375.380402,134.342682 384.085938,134.342682 392.676636,134.342682 
	C392.676636,131.701569 392.676636,129.451218 392.676636,126.831726 
	C388.060822,126.831726 383.762665,126.778137 379.466705,126.852707 
	C377.061279,126.894455 375.312195,126.703094 375.326324,123.484390 
	C375.339417,120.511024 376.246368,119.192627 379.326691,119.376068 
	C382.144806,119.543900 385.000427,119.203270 387.803680,119.467239 
	C391.053162,119.773239 392.001160,118.354134 391.545837,114.587440 
M284.980072,127.395889 
	C284.980072,117.667900 284.980072,107.939911 284.980072,98.200653 
	C281.405548,98.200653 278.527893,98.200653 275.557465,98.200653 
	C275.557465,110.451324 275.557465,122.324608 275.557465,134.477966 
	C278.692657,134.477966 281.573059,134.477966 284.980072,134.477966 
	C284.980072,132.248840 284.980072,130.305557 284.980072,127.395889 
z"/>
<path fill="#376E2E" opacity="1.000000" stroke="none" 
	d="
M481.000000,36.666668 
	C467.172760,47.790447 457.413025,62.007595 447.829163,76.373024 
	C447.111603,77.448616 446.616364,79.030128 445.616455,79.475548 
	C444.135193,80.135422 441.636902,80.746582 440.771301,79.995621 
	C439.658752,79.030388 439.011963,76.506149 439.413055,74.982056 
	C442.311401,63.968750 442.004883,52.969578 439.982635,41.902897 
	C439.297363,38.152607 437.829224,37.766277 434.105347,39.079407 
	C430.476166,40.359154 426.170471,40.182755 422.204956,39.940186 
	C415.928040,39.556229 412.566040,42.666355 410.070160,47.974918 
	C405.547913,57.593487 400.613342,67.017342 395.980377,76.585182 
	C394.294373,80.067131 392.403900,82.301338 388.094543,79.370338 
	C388.502960,73.421890 387.649323,66.812813 395.458618,64.089439 
	C395.929016,63.925400 396.155273,63.003128 396.453522,62.412632 
	C399.965576,55.458733 403.469666,48.500816 407.644684,40.216885 
	C401.759155,42.023449 396.625458,43.290768 391.749329,45.211788 
	C388.827850,46.362736 388.787506,49.084080 389.590881,52.044758 
	C389.965729,53.426250 388.943451,55.186871 388.554443,56.775658 
	C387.395264,55.790493 385.796356,55.033276 385.148193,53.783146 
	C380.969086,45.722698 383.505005,40.048576 392.414246,37.776436 
	C397.389069,36.507698 402.524475,35.881172 407.543488,34.766918 
	C409.380249,34.359150 411.105286,33.413612 412.850098,32.642811 
	C413.577454,32.321480 414.610504,31.294479 414.849121,31.471565 
	C419.244751,34.733513 422.887115,31.386568 426.916229,30.566216 
	C428.617310,30.219868 430.838104,32.426128 432.822662,33.472115 
	C432.685669,33.886845 432.548676,34.301575 432.411652,34.716305 
	C433.693451,33.970352 434.966309,33.208549 436.258514,32.481117 
	C442.588165,28.918039 445.417816,29.655668 446.881775,36.889091 
	C448.613647,45.446255 449.025726,54.270531 450.027863,63.138172 
	C452.348907,60.178623 455.003082,56.786633 457.666016,53.401520 
	C459.517883,51.047405 461.293274,48.625156 463.265381,46.375866 
	C465.202911,44.166019 467.435699,42.328613 466.124329,38.729919 
	C465.825867,37.910881 467.429413,36.064762 468.538422,35.156490 
	C469.755585,34.159630 471.591827,33.931519 472.844482,32.962650 
	C476.235352,30.340002 478.589813,31.140055 480.674103,34.896767 
	C481.000000,35.444447 481.000000,35.888889 481.000000,36.666668 
z"/>
<path fill="#3F8234" opacity="1.000000" stroke="none" 
	d="
M1.000001,172.333328 
	C11.770921,165.718536 22.541842,159.437073 33.652248,153.428101 
	C34.340626,155.804626 34.613438,157.924759 35.053852,160.009476 
	C36.045986,164.705826 37.121117,169.384628 38.116867,174.459503 
	C38.683990,178.684067 41.604164,178.629242 44.072300,177.722900 
	C51.453915,175.012207 58.689793,171.904648 65.988823,169.339874 
	C65.997421,171.266312 65.999763,172.804916 66.002098,174.343506 
	C47.286026,180.985397 30.046095,190.591492 12.384570,201.676025 
	C13.288011,195.774399 13.895954,190.886612 14.823395,186.060196 
	C15.463837,182.727356 14.954710,180.393723 11.462065,178.992325 
	C8.103256,177.644638 4.927818,175.839951 1.335905,174.118027 
	C1.000000,173.555557 1.000000,173.111099 1.000001,172.333328 
z"/>
<path fill="#346B2C" opacity="1.000000" stroke="none" 
	d="
M38.162476,174.070572 
	C37.121117,169.384628 36.045986,164.705826 35.053852,160.009476 
	C34.613438,157.924759 34.340626,155.804626 33.967972,153.280045 
	C33.717548,148.324280 33.978207,144.039993 39.447124,141.980728 
	C37.327873,141.669647 35.208618,141.358566 32.581001,140.972855 
	C33.953808,137.943329 35.154968,135.292587 36.493649,132.338379 
	C33.486485,131.499725 30.681234,130.717392 27.579428,129.852356 
	C29.186548,127.231689 30.623465,124.888565 32.264050,122.213326 
	C29.215996,121.088295 26.624517,120.131783 23.371349,118.931038 
	C26.028786,116.818375 28.292709,115.018555 31.185944,112.718437 
	C27.237707,110.389664 24.588655,108.827187 21.301586,106.888390 
	C23.651115,104.830170 25.685589,103.047943 28.072786,100.956726 
	C25.885351,99.030907 23.830477,97.221786 21.495552,95.166107 
	C23.845882,93.145447 26.027746,91.269623 29.423321,88.350334 
	C26.617477,86.692825 24.174238,85.249519 21.022820,83.387871 
	C25.142883,81.200302 27.594229,79.898750 30.596426,78.304718 
	C28.625090,75.961243 26.775133,73.762070 24.690905,71.284393 
	C27.836159,70.283989 30.668715,69.383041 34.165833,68.270721 
	C32.723049,65.679031 31.332445,63.181076 29.705650,60.258846 
	C32.999565,59.646870 35.869957,59.113583 39.225349,58.490185 
	C38.106056,55.629868 37.040989,52.908142 35.718513,49.528606 
	C38.951771,49.528606 41.814163,49.528606 45.376591,49.528606 
	C44.571030,46.040295 43.928501,43.257969 43.173477,39.988506 
	C46.374676,40.568474 49.217125,41.083443 52.591381,41.694759 
	C52.349270,38.430267 52.124508,35.399681 51.855785,31.776361 
	C55.070961,32.669315 57.842609,33.439091 61.147865,34.357063 
	C61.147865,30.919153 61.147865,27.851587 61.147865,24.188578 
	C64.513412,25.791973 67.269516,27.105022 70.566605,28.675804 
	C71.004616,25.262920 71.373642,22.387516 71.838203,18.767771 
	C74.752792,20.623741 77.274185,22.229330 80.049904,23.996864 
	C81.173897,20.925041 82.182678,18.168083 83.400330,14.840290 
	C85.918900,16.896473 88.271095,18.816826 90.939850,20.995621 
	C92.243118,18.042183 93.483170,15.232007 94.749695,12.361826 
	C97.273010,14.630509 99.557243,16.684240 102.199089,19.059494 
	C103.768440,16.848351 105.445129,14.485970 107.448105,11.663874 
	C109.287140,14.240665 110.954323,16.576666 112.829094,19.203529 
	C114.771454,16.917181 116.548866,14.824986 118.792999,12.183424 
	C120.774132,15.398914 122.202255,17.716845 123.775925,20.270998 
	C126.124252,18.593307 128.366608,16.991325 130.996368,15.112569 
	C132.171814,18.099865 133.241867,20.819330 134.458542,23.911388 
	C137.094025,22.335028 139.712189,20.769026 142.571259,19.058937 
	C143.179398,22.257687 143.723495,25.119585 144.395279,28.653128 
	C147.055023,27.416536 149.396149,26.328081 152.476959,24.895723 
	C152.818497,27.980448 153.130341,30.797173 153.498840,34.125427 
	C156.410477,33.361156 159.206543,32.627220 162.488663,31.765705 
	C162.300034,34.904003 162.128693,37.754776 161.924423,41.153248 
	C164.938522,40.867214 167.627945,40.611992 170.869781,40.304348 
	C170.443649,43.249111 170.035004,46.072918 169.580887,49.211040 
	C172.708282,49.211040 175.500397,49.211040 179.170776,49.211040 
	C177.844345,52.714218 176.711746,55.705471 175.575974,58.705086 
	C178.613052,59.143452 181.562881,59.569221 185.174164,60.090462 
	C183.618744,62.780266 182.272507,65.108322 180.607590,67.987480 
	C183.793640,69.076088 186.768555,70.092560 191.142395,71.587013 
	C188.003113,73.931351 185.612244,75.716805 182.515884,78.029099 
	C186.283127,79.969559 188.957870,81.347290 192.931183,83.393890 
	C189.885513,85.408737 187.408524,87.047386 184.572891,88.923279 
	C188.218338,91.367760 190.641891,92.992889 193.451584,94.876945 
	C190.846375,96.996269 188.584091,98.836617 185.972870,100.960831 
	C188.327545,102.850876 190.473358,104.573273 193.139893,106.713654 
	C190.218185,108.379913 187.580322,109.884300 184.391312,111.703011 
	C186.483673,114.000313 188.437500,116.145515 190.667465,118.593887 
	C187.860992,119.870575 185.254135,121.056450 182.322922,122.389885 
	C183.907745,124.894257 185.310654,127.111191 187.028595,129.825943 
	C183.985840,130.721558 181.089050,131.574219 177.765030,132.552628 
	C179.074326,135.359375 180.298706,137.984131 181.677460,140.939789 
	C179.547028,141.319351 177.790741,141.632248 174.130096,142.284424 
	C182.738876,143.615082 179.335144,149.477386 180.636902,153.926102 
	C180.337601,155.975327 180.247086,157.439758 179.992157,158.874969 
	C178.979828,164.574203 177.916122,170.264297 176.776550,175.633881 
	C176.106628,174.522705 175.689514,173.507126 174.932251,172.983414 
	C167.288437,167.697037 158.284653,167.215088 149.499313,166.070480 
	C149.178619,166.028702 148.622528,167.793594 148.140625,169.099030 
	C148.745941,173.016113 146.104111,172.692413 143.986923,172.985352 
	C142.380249,172.686768 140.773575,172.388199 138.742508,172.010757 
	C138.096008,174.150513 137.446671,176.299698 136.710327,178.736801 
	C134.348587,177.048294 132.111069,175.448593 129.446793,173.543777 
	C128.002289,176.369873 126.622192,179.069931 125.002457,182.238815 
	C122.600029,179.992905 120.474457,178.005798 118.105400,175.791077 
	C116.562050,178.224518 115.083260,180.556168 113.202293,183.521942 
	C111.151459,181.110687 109.309212,178.944656 107.176125,176.436691 
	C105.167122,178.790161 103.361649,180.905197 101.202499,183.434555 
	C99.576050,180.881500 98.083992,178.539429 96.228645,175.627075 
	C94.108505,177.583954 92.002136,179.528122 89.570351,181.772659 
	C88.190147,178.961227 86.917740,176.369370 85.507553,173.496887 
	C83.050316,175.049561 80.712357,176.526886 78.259895,178.076553 
	C77.380844,175.932510 76.579048,173.976883 75.651009,171.713348 
	C72.542084,172.684631 69.631691,173.593872 66.361702,174.423309 
	C65.999763,172.804916 65.997421,171.266312 66.046143,168.924194 
	C65.658127,167.432480 65.105431,166.096176 64.796501,166.150345 
	C55.618664,167.759277 45.934525,167.744278 38.162476,174.070572 
M67.395988,136.924637 
	C67.628357,136.698364 67.860718,136.472092 68.027588,136.127090 
	C68.027588,136.127090 68.152641,136.074722 68.916359,136.026581 
	C69.677826,135.947037 70.439301,135.867477 71.047836,135.913803 
	C71.047836,135.913803 71.163078,135.752701 71.305038,136.264099 
	C71.867355,136.175247 72.429672,136.086395 73.799217,135.807571 
	C86.889534,134.878006 99.970474,133.417206 113.073112,133.186050 
	C123.659225,132.999313 134.271484,134.294785 145.623474,135.084473 
	C149.765442,136.049103 153.907425,137.013733 158.756683,137.953964 
	C159.903564,136.863022 161.444107,135.975479 162.130661,134.646683 
	C165.494614,128.135864 168.631241,121.507599 172.450073,115.121147 
	C172.891708,115.055511 173.672073,115.091461 173.726578,114.909729 
	C176.994278,104.014023 176.922852,93.058937 174.021652,82.116913 
	C173.895645,81.641617 172.413315,81.525948 171.060104,80.702110 
	C164.308807,54.223652 140.140930,32.184273 107.787186,32.088352 
	C82.341591,32.012917 62.348713,43.401585 49.945713,65.512741 
	C37.268650,88.112488 38.437355,111.231094 51.799782,133.608337 
	C53.753613,136.880295 56.007114,139.043716 60.924004,138.109222 
	C62.931915,137.700989 64.939827,137.292755 66.939857,136.977188 
	C66.939857,136.977188 66.889870,136.898758 67.395988,136.924637 
M89.661530,163.548218 
	C89.146019,163.507736 88.630508,163.467239 88.114998,163.426743 
	C88.112022,163.580841 88.109047,163.734924 88.106071,163.889023 
	C88.737686,163.925812 89.369301,163.962601 90.516014,164.541702 
	C101.333282,168.820389 112.118179,168.009689 122.323631,165.014343 
	C115.203888,165.014343 107.530685,165.112930 99.862083,164.968185 
	C96.569664,164.906036 93.286774,164.338516 89.661530,163.548218 
M114.644241,140.638351 
	C114.400795,146.075668 114.157341,151.513000 113.913887,156.950317 
	C114.498444,157.222595 115.083008,157.494873 115.667564,157.767151 
	C116.443207,156.442581 117.616470,155.196701 117.897881,153.774353 
	C118.284172,151.821899 117.994514,149.735703 117.994514,147.706818 
	C120.756081,149.671539 122.199318,151.868637 123.809769,153.935440 
	C125.279480,155.821640 125.849831,159.264267 129.759903,157.651520 
	C130.221146,151.929153 130.683014,146.198822 131.137146,140.564636 
	C127.729141,139.180466 126.822189,140.422729 126.773712,143.249420 
	C126.739372,145.252548 126.271057,147.248245 125.892700,150.002518 
	C123.529617,146.696655 121.948807,143.927063 119.797958,141.710617 
	C118.715080,140.594727 116.597534,140.482895 114.644241,140.638351 
M79.711884,142.518280 
	C80.236961,147.738434 80.762039,152.958572 81.305061,158.357132 
	C87.805016,158.709442 82.812233,152.529510 85.704124,151.194824 
	C90.021591,151.131287 87.988770,159.518478 94.350220,157.197495 
	C92.933121,153.061386 90.013474,149.352814 92.209160,144.630966 
	C92.544273,143.910294 89.666779,140.537842 88.014610,140.313873 
	C85.325813,139.949371 82.422035,141.170792 79.711884,142.518280 
M73.934418,157.129333 
	C75.411598,157.915131 76.888786,158.700912 78.365967,159.486710 
	C78.686844,159.094955 79.007713,158.703217 79.328590,158.311478 
	C76.645729,153.410934 74.075523,148.442078 71.181198,143.669785 
	C70.628448,142.758362 68.808960,142.291565 67.551407,142.246414 
	C66.730263,142.216934 65.264740,143.200058 65.121002,143.932373 
	C64.024231,149.520325 63.181751,155.158173 62.228519,160.973419 
	C66.390640,159.366882 69.770653,158.062241 73.934418,157.129333 
M158.138031,155.645493 
	C157.129578,157.593704 156.121109,159.541916 154.705276,162.277115 
	C158.520538,161.362778 161.514648,159.756683 164.072464,160.280640 
	C166.661407,160.810944 168.818680,163.448761 172.150497,165.883575 
	C171.280472,159.056641 170.773560,153.658539 169.776764,148.352478 
	C169.554413,147.168900 167.737976,145.813843 166.414764,145.473541 
	C165.532288,145.246567 163.882278,146.431549 163.172989,147.415237 
	C161.440659,149.817841 160.055283,152.470627 158.138031,155.645493 
M97.785500,147.211014 
	C96.890656,150.497650 95.995811,153.784286 94.845993,158.007416 
	C98.395782,156.412903 101.021172,154.347076 103.688469,154.291443 
	C106.220940,154.238632 108.797287,156.289551 112.670746,157.995010 
	C110.123535,151.495651 108.342308,146.516541 106.165359,141.716904 
	C105.653618,140.588608 103.840393,139.520813 102.561745,139.439972 
	C101.562485,139.376785 100.122543,140.682373 99.494492,141.744171 
	C98.679710,143.121674 98.476189,144.860764 97.785500,147.211014 
M47.320091,162.323990 
	C51.249462,164.695343 55.433327,164.461609 58.263191,161.251480 
	C59.753666,159.560730 59.147903,156.022034 59.589691,152.515869 
	C56.517906,153.052383 54.706295,153.368790 51.887474,153.861115 
	C53.704361,155.912903 54.761639,157.106873 55.818916,158.300842 
	C55.660469,158.813766 55.502022,159.326706 55.343575,159.839630 
	C53.227383,159.383972 50.496784,159.569809 49.165470,158.294678 
	C47.797165,156.984131 46.723518,152.892731 47.382336,152.371643 
	C50.082073,150.236282 53.492157,148.999039 57.358692,147.073761 
	C56.892799,146.676086 55.892799,145.094086 54.705261,144.937897 
	C50.124981,144.335403 45.845226,145.490891 43.689079,149.925293 
	C41.468945,154.491318 42.805458,158.648743 47.320091,162.323990 
M142.937653,146.481796 
	C144.852859,145.784546 146.768082,145.087311 149.336899,144.152115 
	C146.021591,139.549789 140.797592,141.797241 136.698822,140.773041 
	C135.631958,140.506470 134.216263,141.635864 132.960770,142.124100 
	C133.124313,142.560501 133.287857,142.996902 133.451385,143.433304 
	C135.193878,143.807678 136.936356,144.182037 138.834702,144.589890 
	C138.353333,148.582092 137.769775,152.350037 137.534073,156.139633 
	C137.476059,157.072144 138.551773,158.075180 139.106293,159.045792 
	C139.908096,158.266510 141.213257,157.600983 141.419769,156.687180 
	C142.111435,153.626404 142.410614,150.476929 142.937653,146.481796 
M149.687271,158.547287 
	C150.473373,159.540070 151.259491,160.532852 152.801743,162.480591 
	C154.087326,154.988998 155.056702,149.340103 156.020676,143.722626 
	C152.621201,141.951935 151.640442,143.741364 151.264847,146.433212 
	C150.739716,150.196854 150.250977,153.965576 149.687271,158.547287 
M115.272537,29.933969 
	C115.399071,29.742680 115.545761,29.559710 115.631653,29.351645 
	C115.645439,29.318256 115.387817,29.091156 115.255310,29.090815 
	C109.904350,29.077038 104.553337,29.079058 99.202339,29.079058 
	C99.204704,29.380724 99.207069,29.682392 99.209427,29.984058 
	C104.312408,29.984058 109.415390,29.984058 115.272537,29.933969 
M106.498108,164.275467 
	C107.053543,164.383987 107.608978,164.492508 108.164421,164.601028 
	C108.170036,164.205612 108.175659,163.810196 108.181274,163.414780 
	C107.623032,163.508667 107.064796,163.602554 106.498108,164.275467 
M119.229416,30.831472 
	C119.818954,30.778858 120.408493,30.726244 120.998032,30.673628 
	C120.963783,30.467001 120.929535,30.260372 120.895287,30.053743 
	C120.235176,30.184940 119.575066,30.316137 119.229416,30.831472 
M124.926338,31.820335 
	C124.877686,31.598627 124.829033,31.376921 124.780380,31.155214 
	C124.486084,31.233423 124.191795,31.311632 123.897499,31.389841 
	C124.099525,31.558033 124.301559,31.726225 124.926338,31.820335 
z"/>
<path fill="#366D2E" opacity="1.000000" stroke="none" 
	d="
M298.725464,55.725014 
	C294.516052,60.861423 290.139221,65.873650 286.187500,71.201210 
	C284.792328,73.082108 284.782166,75.954330 283.499237,77.965446 
	C282.412689,79.668739 280.402618,80.782898 278.801208,82.157776 
	C278.235260,82.099915 277.669281,82.042061 277.103302,81.984200 
	C276.329559,74.135674 275.555817,66.287148 274.782074,58.438622 
	C274.245789,58.340401 273.709503,58.242176 273.173218,58.143955 
	C271.246460,63.643665 264.308258,66.634361 266.099060,74.004303 
	C266.174255,74.313919 266.213470,74.859329 266.052063,74.966019 
	C262.576599,77.263176 259.265930,80.011459 255.464722,81.505814 
	C254.111649,82.037735 251.553436,79.504211 249.772614,78.498360 
	C254.917725,72.651665 259.554291,67.584999 263.937500,62.307877 
	C265.835327,60.023014 267.276855,57.343658 268.809479,54.774189 
	C272.056030,49.331253 270.817719,42.810169 265.491058,39.294239 
	C264.364197,38.550446 261.941620,39.103851 260.431580,39.772373 
	C258.474731,40.638718 256.834167,42.219479 254.689804,43.756115 
	C253.968292,39.058674 258.445404,32.892578 263.108429,30.941725 
	C267.476837,29.114124 269.409180,30.398380 277.008667,40.419193 
	C277.649323,38.589989 277.982941,36.959770 278.774078,35.594685 
	C279.398560,34.517078 280.585846,33.765625 281.523224,32.869339 
	C282.466095,34.225174 284.004089,35.507011 284.184448,36.957642 
	C284.364838,38.408878 283.494568,40.255383 282.549927,41.533218 
	C279.472137,45.696735 279.465546,49.928585 281.222656,54.604538 
	C282.365387,57.645683 282.881531,60.922291 284.147919,65.961952 
	C285.426971,63.861771 285.945099,62.658154 286.765411,61.718357 
	C295.624420,51.569126 304.509613,41.442539 313.437988,31.354336 
	C315.946045,28.520515 321.719788,29.567858 322.803528,33.123711 
	C323.024628,33.849216 321.962128,35.241795 321.157837,35.945992 
	C319.528168,37.372864 317.052826,38.164062 316.012482,39.877106 
	C311.287537,47.657101 306.940430,55.666573 302.457397,63.593479 
	C303.130341,63.723705 303.803284,63.853928 304.476227,63.984150 
	C304.751678,65.594070 305.622620,67.394997 305.180084,68.774612 
	C304.225098,71.751892 302.862274,74.689545 301.136902,77.292473 
	C300.184052,78.729942 297.914886,80.560936 296.669037,80.283554 
	C293.769958,79.638092 291.660492,77.454926 292.973602,73.940666 
	C295.065979,68.340996 297.274109,62.784584 299.663055,56.625114 
	C299.837646,55.788712 299.782471,55.537071 299.727264,55.285431 
	C299.393341,55.431961 299.059387,55.578487 298.725464,55.725014 
z"/>
<path fill="#366D2D" opacity="1.000000" stroke="none" 
	d="
M223.797363,60.196041 
	C227.741684,66.125633 231.577011,72.132187 235.683151,77.947533 
	C237.363647,80.327560 239.576904,82.225693 242.842728,79.832726 
	C243.414581,79.413712 244.980652,79.538353 245.446793,80.025299 
	C245.881409,80.479317 245.726700,81.868706 245.378967,82.643196 
	C241.800110,90.613983 236.237976,91.606049 230.810257,84.840614 
	C225.210724,77.861053 220.159485,70.441620 214.572159,62.810081 
	C211.782120,67.187012 208.943588,71.947502 205.770111,76.473122 
	C204.426361,78.389404 203.528473,82.160683 199.940643,80.183372 
	C196.428467,78.247787 198.133926,75.490662 198.982040,72.429428 
	C200.710373,66.191040 208.182297,64.972214 209.819763,58.964054 
	C210.395264,56.852406 210.773010,54.684628 211.401611,52.590679 
	C211.693588,51.618092 212.217972,50.621807 212.900497,49.878063 
	C214.695801,47.921825 216.635544,46.098141 219.264008,43.477642 
	C210.030533,44.073536 204.601303,49.636078 204.019287,57.519432 
	C203.936859,58.636086 203.017746,59.690971 202.485901,60.774448 
	C201.517746,60.052635 200.167755,59.538795 199.643021,58.575455 
	C196.083099,52.039738 197.070923,47.265617 203.101349,43.084782 
	C206.496796,40.730751 210.251053,38.884781 213.888763,36.892265 
	C217.705994,34.801418 221.577133,32.808998 225.283249,30.848406 
	C227.651947,30.848406 230.353897,31.118492 232.983276,30.796328 
	C240.069687,29.928070 246.017334,36.567413 244.151794,43.470692 
	C242.142731,50.904980 231.662766,59.839939 224.640366,59.413486 
	C223.835373,59.246117 223.599731,59.285484 223.364090,59.324852 
	C223.508514,59.615250 223.652939,59.905643 223.797363,60.196041 
M223.183533,44.655746 
	C221.966339,47.282997 220.749146,49.910244 219.559372,52.478302 
	C228.604111,54.664898 233.120071,49.072132 237.063385,42.898933 
	C237.738663,41.841824 237.270554,38.655903 236.486923,38.297329 
	C232.127838,36.302696 225.670731,39.370441 223.183533,44.655746 
z"/>
<path fill="#35642E" opacity="1.000000" stroke="none" 
	d="
M399.621033,99.510620 
	C404.943451,98.475655 410.221527,97.894913 415.605316,97.302528 
	C419.229370,106.829582 422.608215,115.711945 425.987061,124.594307 
	C426.331879,124.505081 426.676727,124.415863 427.021545,124.326645 
	C427.021545,115.697929 427.021545,107.069221 427.021545,98.149597 
	C429.824951,98.149597 432.580536,98.149597 435.716309,98.149597 
	C435.716309,110.177689 435.716309,122.185715 435.716309,134.734528 
	C430.934937,134.734528 426.287567,135.029526 421.721558,134.549881 
	C420.398651,134.410904 418.814331,132.245758 418.196533,130.676193 
	C415.237335,123.158295 412.568787,115.525986 408.796265,108.106430 
	C408.796265,116.690498 408.796265,125.274567 408.796265,134.293869 
	C405.873016,134.293869 403.012238,134.293869 399.576660,134.293869 
	C399.576660,122.827087 399.576660,111.395958 399.621033,99.510620 
z"/>
<path fill="#376D2E" opacity="1.000000" stroke="none" 
	d="
M321.851929,63.795708 
	C322.923340,62.028179 323.752441,59.694286 325.036926,59.408714 
	C333.943298,57.428539 336.872681,48.913223 343.250244,44.249336 
	C343.035126,43.814766 342.819977,43.380192 342.604828,42.945621 
	C339.464203,43.870956 336.348755,44.896244 333.176239,45.695038 
	C329.616669,46.591278 327.106934,48.274017 326.808411,52.326694 
	C326.795135,52.506905 323.663269,53.073971 323.232941,52.509216 
	C319.820587,48.030788 321.797424,41.690479 327.192932,40.125908 
	C331.960785,38.743340 336.963074,38.175659 341.744019,36.829529 
	C344.347504,36.096485 346.619965,34.232868 349.206543,33.377785 
	C350.785156,32.855915 352.677002,33.281441 355.337708,33.281441 
	C354.712860,33.678127 354.969879,33.437229 355.273682,33.334339 
	C357.771637,32.488323 360.278259,31.667953 362.782257,30.839802 
	C361.984009,33.017128 361.304352,35.246971 360.367584,37.362984 
	C355.455536,48.458378 351.449554,59.820770 349.527130,71.936790 
	C351.156494,72.344826 352.479980,72.676254 354.336731,73.141220 
	C352.309082,77.694878 348.445251,79.270782 344.640900,80.621674 
	C344.136536,80.800774 341.857513,78.358978 341.848022,77.119865 
	C341.816437,73.004166 342.445770,68.883400 342.823853,64.740532 
	C335.394409,63.046024 330.346100,64.445831 323.881836,69.966644 
	C324.578583,71.894905 326.183197,74.111870 325.635895,75.446236 
	C325.088074,76.781883 322.404938,77.268402 320.630768,78.067184 
	C318.674805,78.947823 316.569092,79.561104 314.744568,80.652077 
	C312.388641,82.060806 310.228394,83.124779 308.357574,80.192856 
	C306.315460,76.992538 308.496918,75.455276 310.879547,73.848686 
	C314.045837,71.713654 317.116913,69.423698 320.098053,67.036850 
	C320.912964,66.384392 321.259125,65.146477 321.851929,63.795708 
M340.931641,58.162140 
	C345.474762,57.973904 349.279541,51.450703 348.368652,44.924351 
	C344.672699,49.194344 341.148865,53.265499 337.181305,57.849266 
	C338.653503,58.003456 339.406921,58.082363 340.931641,58.162140 
z"/>
<path fill="#33622C" opacity="1.000000" stroke="none" 
	d="
M242.833649,97.860588 
	C247.410522,97.174431 249.406097,98.729416 250.677689,102.944771 
	C252.906525,110.333450 256.042999,117.448326 259.518372,124.585663 
	C259.518372,115.928558 259.518372,107.271454 259.518372,98.239151 
	C262.746765,98.239151 265.628662,98.239151 268.824402,98.239151 
	C268.824402,110.129448 268.824402,122.034233 268.824402,134.693909 
	C263.989410,134.693909 259.060242,134.851059 254.158081,134.557327 
	C253.211945,134.500641 252.004745,132.823471 251.542023,131.648148 
	C248.589203,124.148132 245.811020,116.579369 241.991821,109.167297 
	C241.991821,117.426987 241.991821,125.686676 241.991821,134.333344 
	C238.862473,134.333344 235.970718,134.333344 232.754517,134.333344 
	C232.754517,122.383186 232.754517,110.328812 232.754517,97.860641 
	C236.098007,97.860641 239.232040,97.860641 242.833649,97.860588 
z"/>
<path fill="#3F8335" opacity="1.000000" stroke="none" 
	d="
M144.234024,173.256058 
	C146.104111,172.692413 148.745941,173.016113 148.488510,169.179550 
	C154.806015,171.611755 160.570908,174.874542 166.747360,176.851471 
	C169.721970,177.803574 173.472366,176.331894 176.871475,175.957779 
	C177.916122,170.264297 178.979828,164.574203 179.992157,158.874969 
	C180.247086,157.439758 180.337601,155.975327 180.803833,154.243286 
	C190.467026,159.186920 199.838593,164.396484 209.184814,169.651093 
	C210.749969,170.531036 212.205246,171.606415 214.331116,172.996902 
	C209.808823,175.402466 205.682938,177.326141 201.892471,179.770035 
	C200.672897,180.556351 199.609955,182.772141 199.727219,184.233505 
	C200.161484,189.645630 201.118423,195.015808 201.925125,200.728622 
	C183.413330,189.813614 165.151291,179.107513 144.234024,173.256058 
z"/>
<path fill="#31622A" opacity="1.000000" stroke="none" 
	d="
M350.531067,98.930054 
	C354.331299,98.263275 357.892914,97.925156 362.866730,97.452965 
	C358.725647,103.313812 355.463287,108.202423 351.898132,112.859253 
	C350.181946,115.100937 350.123291,116.685730 351.925934,118.923019 
	C355.773041,123.697647 359.321167,128.713165 363.024109,133.673279 
	C356.047638,136.292358 352.307281,135.203796 348.327057,129.533096 
	C346.607086,127.082596 345.011536,124.524338 343.081055,122.251488 
	C342.240906,121.262321 340.699860,120.868477 339.477142,120.204254 
	C339.066162,121.364685 338.354492,122.511368 338.300720,123.688118 
	C338.142181,127.158302 338.244141,130.640396 338.244141,134.410950 
	C335.117584,134.410950 332.364136,134.410950 329.212677,134.410950 
	C329.212677,122.390305 329.212677,110.371048 329.212677,98.106659 
	C332.032990,98.106659 334.791504,98.106659 338.166748,98.106659 
	C338.166748,102.505348 338.166748,106.889404 338.166748,112.560776 
	C345.240723,109.775566 346.467346,103.269966 350.531067,98.930054 
z"/>
<path fill="#32622B" opacity="1.000000" stroke="none" 
	d="
M291.693787,124.966995 
	C291.693726,115.833229 291.693726,107.193291 291.693726,98.208549 
	C294.770416,98.208549 297.651459,98.208549 300.959290,98.208549 
	C300.959290,102.469528 300.959290,106.733734 300.959290,112.460846 
	C303.182953,111.256348 304.785370,110.814377 305.737427,109.776062 
	C307.293854,108.078644 308.807037,106.148575 309.669220,104.042648 
	C312.639679,96.787170 318.351746,97.303322 325.120361,98.269287 
	C321.471771,103.405319 318.290131,108.209656 314.751617,112.734947 
	C312.831451,115.190605 313.022156,116.888199 314.921112,119.231613 
	C318.750244,123.957008 322.254120,128.945923 326.226624,134.274780 
	C319.324249,135.306107 313.719360,135.562943 310.247894,128.490311 
	C308.575745,125.083473 305.516754,122.357315 303.085785,119.322922 
	C302.531036,119.646507 301.976318,119.970100 301.421570,120.293694 
	C301.421570,124.843224 301.421570,129.392761 301.421570,134.329529 
	C297.999817,134.329529 295.134613,134.329529 291.693817,134.329529 
	C291.693817,131.346695 291.693817,128.403763 291.693787,124.966995 
z"/>
<path fill="#34632D" opacity="1.000000" stroke="none" 
	d="
M391.558655,115.011398 
	C392.001160,118.354134 391.053162,119.773239 387.803680,119.467239 
	C385.000427,119.203270 382.144806,119.543900 379.326691,119.376068 
	C376.246368,119.192627 375.339417,120.511024 375.326324,123.484390 
	C375.312195,126.703094 377.061279,126.894455 379.466705,126.852707 
	C383.762665,126.778137 388.060822,126.831726 392.676636,126.831726 
	C392.676636,129.451218 392.676636,131.701569 392.676636,134.342682 
	C384.085938,134.342682 375.380402,134.342682 366.329254,134.342682 
	C366.329254,122.460182 366.329254,110.575691 366.329254,98.272705 
	C374.722412,98.272705 383.269867,98.272705 392.186035,98.272705 
	C392.186035,100.393349 392.186035,102.628525 392.186035,105.585709 
	C386.819672,105.585709 381.445160,105.585709 376.245636,105.585709 
	C374.716858,112.496635 374.965088,112.820396 381.134033,112.835388 
	C383.795776,112.841858 386.469055,112.696693 389.112549,112.916290 
	C389.964050,112.987007 390.736969,114.003571 391.558655,115.011398 
z"/>
<path fill="#3F6A39" opacity="1.000000" stroke="none" 
	d="
M284.980072,127.879074 
	C284.980072,130.305557 284.980072,132.248840 284.980072,134.477966 
	C281.573059,134.477966 278.692657,134.477966 275.557465,134.477966 
	C275.557465,122.324608 275.557465,110.451324 275.557465,98.200653 
	C278.527893,98.200653 281.405548,98.200653 284.980072,98.200653 
	C284.980072,107.939911 284.980072,117.667900 284.980072,127.879074 
z"/>
<path fill="#E9EDE8" opacity="1.000000" stroke="none" 
	d="
M38.116867,174.459503 
	C45.934525,167.744278 55.618664,167.759277 64.796501,166.150345 
	C65.105431,166.096176 65.658127,167.432480 66.039886,168.536346 
	C58.689793,171.904648 51.453915,175.012207 44.072300,177.722900 
	C41.604164,178.629242 38.683990,178.684067 38.116867,174.459503 
z"/>
<path fill="#EFF0EF" opacity="1.000000" stroke="none" 
	d="
M144.872131,134.932739 
	C134.271484,134.294785 123.659225,132.999313 113.073112,133.186050 
	C99.970474,133.417206 86.889534,134.878006 73.100647,135.805023 
	C71.989075,135.785873 71.576080,135.769287 71.163078,135.752701 
	C71.163078,135.752701 71.047836,135.913803 70.989838,135.544067 
	C52.557281,116.442360 52.371925,89.639671 62.648315,71.650665 
	C76.305550,47.743427 107.995827,38.613827 131.979324,51.846760 
	C145.468979,59.289700 153.523010,70.672676 158.045135,85.417686 
	C158.272339,93.201164 158.520874,100.553604 158.649963,108.134834 
	C158.584915,108.691040 158.639297,109.018440 158.444550,109.605042 
	C158.093994,110.565567 157.992584,111.266884 157.700226,112.266266 
	C153.296921,120.020454 149.084534,127.476585 144.872131,134.932739 
M130.828461,99.326645 
	C133.523010,96.055588 138.006409,93.052956 138.545776,89.458504 
	C139.728134,81.579018 138.912079,73.399666 138.912079,64.347824 
	C124.897942,77.914787 111.610573,90.778168 96.796410,105.119637 
	C89.921448,97.439056 83.355110,90.103264 75.881325,81.753693 
	C75.881325,91.360901 75.833946,99.306381 75.939117,107.249847 
	C75.952820,108.285233 76.489517,109.578415 77.226997,110.298401 
	C84.346451,117.248848 91.560783,124.102112 99.241020,131.455170 
	C109.361038,121.163391 119.847908,110.498543 130.828461,99.326645 
z"/>
<path fill="#EDEFED" opacity="1.000000" stroke="none" 
	d="
M60.101871,138.051041 
	C56.007114,139.043716 53.753613,136.880295 51.799782,133.608337 
	C38.437355,111.231094 37.268650,88.112488 49.945713,65.512741 
	C62.348713,43.401585 82.341591,32.012917 107.787186,32.088352 
	C140.140930,32.184273 164.308807,54.223652 171.377289,81.395584 
	C172.024963,84.198448 172.667511,86.313156 172.631668,88.416298 
	C172.481003,97.253029 172.127472,106.086296 171.848206,114.920837 
	C168.631241,121.507599 165.494614,128.135864 162.130661,134.646683 
	C161.444107,135.975479 159.903564,136.863022 158.132874,137.698669 
	C154.367294,136.838593 151.225525,136.233795 147.506256,135.517838 
	C153.785294,127.316757 159.091843,119.405785 160.518250,109.206604 
	C162.541870,100.843498 162.628891,92.876518 160.061584,84.600937 
	C157.579086,78.635933 155.802887,72.570984 152.444077,67.568703 
	C140.864243,50.322884 124.250443,41.772202 103.566986,43.396046 
	C82.762848,45.029362 67.126816,55.809563 58.421574,74.882759 
	C48.269573,97.125809 52.689117,117.618019 68.152641,136.074722 
	C68.152641,136.074722 68.027588,136.127090 67.832428,136.239273 
	C67.334694,136.460892 67.085564,136.643326 66.889870,136.898758 
	C66.889870,136.898758 66.939857,136.977188 66.540604,136.870789 
	C64.128189,137.193268 62.115032,137.622162 60.101871,138.051041 
z"/>
<path fill="#529647" opacity="1.000000" stroke="none" 
	d="
M68.534500,136.050659 
	C52.689117,117.618019 48.269573,97.125809 58.421574,74.882759 
	C67.126816,55.809563 82.762848,45.029362 103.566986,43.396046 
	C124.250443,41.772202 140.864243,50.322884 152.444077,67.568703 
	C155.802887,72.570984 157.579086,78.635933 159.732300,84.608551 
	C158.944702,84.997787 158.505600,84.992210 158.066498,84.986641 
	C153.523010,70.672676 145.468979,59.289700 131.979324,51.846760 
	C107.995827,38.613827 76.305550,47.743427 62.648315,71.650665 
	C52.371925,89.639671 52.557281,116.442360 71.066307,135.481140 
	C70.439301,135.867477 69.677826,135.947037 68.534500,136.050659 
z"/>
<path fill="#E1EAE0" opacity="1.000000" stroke="none" 
	d="
M114.796051,140.277679 
	C116.597534,140.482895 118.715080,140.594727 119.797958,141.710617 
	C121.948807,143.927063 123.529617,146.696655 125.892700,150.002518 
	C126.271057,147.248245 126.739372,145.252548 126.773712,143.249420 
	C126.822189,140.422729 127.729141,139.180466 131.137146,140.564636 
	C130.683014,146.198822 130.221146,151.929153 129.759903,157.651520 
	C125.849831,159.264267 125.279480,155.821640 123.809769,153.935440 
	C122.199318,151.868637 120.756081,149.671539 117.994514,147.706818 
	C117.994514,149.735703 118.284172,151.821899 117.897881,153.774353 
	C117.616470,155.196701 116.443207,156.442581 115.667564,157.767151 
	C115.083008,157.494873 114.498444,157.222595 113.913887,156.950317 
	C114.157341,151.513000 114.400795,146.075668 114.796051,140.277679 
z"/>
<path fill="#E2EBE1" opacity="1.000000" stroke="none" 
	d="
M79.660431,142.120605 
	C82.422035,141.170792 85.325813,139.949371 88.014610,140.313873 
	C89.666779,140.537842 92.544273,143.910294 92.209160,144.630966 
	C90.013474,149.352814 92.933121,153.061386 94.350220,157.197495 
	C87.988770,159.518478 90.021591,151.131287 85.704124,151.194824 
	C82.812233,152.529510 87.805016,158.709442 81.305061,158.357132 
	C80.762039,152.958572 80.236961,147.738434 79.660431,142.120605 
z"/>
<path fill="#DEE7DD" opacity="1.000000" stroke="none" 
	d="
M73.542542,156.943466 
	C69.770653,158.062241 66.390640,159.366882 62.228519,160.973419 
	C63.181751,155.158173 64.024231,149.520325 65.121002,143.932373 
	C65.264740,143.200058 66.730263,142.216934 67.551407,142.246414 
	C68.808960,142.291565 70.628448,142.758362 71.181198,143.669785 
	C74.075523,148.442078 76.645729,153.410934 79.328590,158.311478 
	C79.007713,158.703217 78.686844,159.094955 78.365967,159.486710 
	C76.888786,158.700912 75.411598,157.915131 73.542542,156.943466 
z"/>
<path fill="#E1E9E1" opacity="1.000000" stroke="none" 
	d="
M158.334137,155.334091 
	C160.055283,152.470627 161.440659,149.817841 163.172989,147.415237 
	C163.882278,146.431549 165.532288,145.246567 166.414764,145.473541 
	C167.737976,145.813843 169.554413,147.168900 169.776764,148.352478 
	C170.773560,153.658539 171.280472,159.056641 172.150497,165.883575 
	C168.818680,163.448761 166.661407,160.810944 164.072464,160.280640 
	C161.514648,159.756683 158.520538,161.362778 154.705276,162.277115 
	C156.121109,159.541916 157.129578,157.593704 158.334137,155.334091 
z"/>
<path fill="#E0E9DF" opacity="1.000000" stroke="none" 
	d="
M97.897522,146.827606 
	C98.476189,144.860764 98.679710,143.121674 99.494492,141.744171 
	C100.122543,140.682373 101.562485,139.376785 102.561745,139.439972 
	C103.840393,139.520813 105.653618,140.588608 106.165359,141.716904 
	C108.342308,146.516541 110.123535,151.495651 112.670746,157.995010 
	C108.797287,156.289551 106.220940,154.238632 103.688469,154.291443 
	C101.021172,154.347076 98.395782,156.412903 94.845993,158.007416 
	C95.995811,153.784286 96.890656,150.497650 97.897522,146.827606 
z"/>
<path fill="#E8ECE7" opacity="1.000000" stroke="none" 
	d="
M176.776550,175.633881 
	C173.472366,176.331894 169.721970,177.803574 166.747360,176.851471 
	C160.570908,174.874542 154.806015,171.611755 148.524048,168.797043 
	C148.622528,167.793594 149.178619,166.028702 149.499313,166.070480 
	C158.284653,167.215088 167.288437,167.697037 174.932251,172.983414 
	C175.689514,173.507126 176.106628,174.522705 176.776550,175.633881 
z"/>
<path fill="#E2EAE1" opacity="1.000000" stroke="none" 
	d="
M46.989014,162.139679 
	C42.805458,158.648743 41.468945,154.491318 43.689079,149.925293 
	C45.845226,145.490891 50.124981,144.335403 54.705261,144.937897 
	C55.892799,145.094086 56.892799,146.676086 57.358692,147.073761 
	C53.492157,148.999039 50.082073,150.236282 47.382336,152.371643 
	C46.723518,152.892731 47.797165,156.984131 49.165470,158.294678 
	C50.496784,159.569809 53.227383,159.383972 55.343575,159.839630 
	C55.502022,159.326706 55.660469,158.813766 55.818916,158.300842 
	C54.761639,157.106873 53.704361,155.912903 51.887474,153.861115 
	C54.706295,153.368790 56.517906,153.052383 59.589691,152.515869 
	C59.147903,156.022034 59.753666,159.560730 58.263191,161.251480 
	C55.433327,164.461609 51.249462,164.695343 46.989014,162.139679 
z"/>
<path fill="#DAE4D9" opacity="1.000000" stroke="none" 
	d="
M142.898865,146.921600 
	C142.410614,150.476929 142.111435,153.626404 141.419769,156.687180 
	C141.213257,157.600983 139.908096,158.266510 139.106293,159.045792 
	C138.551773,158.075180 137.476059,157.072144 137.534073,156.139633 
	C137.769775,152.350037 138.353333,148.582092 138.834702,144.589890 
	C136.936356,144.182037 135.193878,143.807678 133.451385,143.433304 
	C133.287857,142.996902 133.124313,142.560501 132.960770,142.124100 
	C134.216263,141.635864 135.631958,140.506470 136.698822,140.773041 
	C140.797592,141.797241 146.021591,139.549789 149.336899,144.152115 
	C146.768082,145.087311 144.852859,145.784546 142.898865,146.921600 
z"/>
<path fill="#48863E" opacity="1.000000" stroke="none" 
	d="
M172.149139,115.020996 
	C172.127472,106.086296 172.481003,97.253029 172.631668,88.416298 
	C172.667511,86.313156 172.024963,84.198448 171.628632,81.665909 
	C172.413315,81.525948 173.895645,81.641617 174.021652,82.116913 
	C176.922852,93.058937 176.994278,104.014023 173.726578,114.909729 
	C173.672073,115.091461 172.891708,115.055511 172.149139,115.020996 
z"/>
<path fill="#539649" opacity="1.000000" stroke="none" 
	d="
M160.292191,109.552429 
	C159.091843,119.405785 153.785294,127.316757 147.506256,135.517838 
	C151.225525,136.233795 154.367294,136.838593 157.779236,137.710876 
	C153.907425,137.013733 149.765442,136.049103 145.247803,135.008606 
	C149.084534,127.476585 153.296921,120.020454 157.977844,112.026306 
	C158.528809,110.774139 158.611252,110.059990 158.693695,109.345848 
	C158.639297,109.018440 158.584915,108.691040 158.980087,108.328705 
	C159.717178,108.713333 160.004684,109.132881 160.292191,109.552429 
z"/>
<path fill="#DEE7DD" opacity="1.000000" stroke="none" 
	d="
M149.716980,158.139709 
	C150.250977,153.965576 150.739716,150.196854 151.264847,146.433212 
	C151.640442,143.741364 152.621201,141.951935 156.020676,143.722626 
	C155.056702,149.340103 154.087326,154.988998 152.801743,162.480591 
	C151.259491,160.532852 150.473373,159.540070 149.716980,158.139709 
z"/>
<path fill="#3B7C30" opacity="1.000000" stroke="none" 
	d="
M89.999557,164.000610 
	C93.286774,164.338516 96.569664,164.906036 99.862083,164.968185 
	C107.530685,165.112930 115.203888,165.014343 122.323631,165.014343 
	C112.118179,168.009689 101.333282,168.820389 90.258011,164.270844 
	C90.000000,164.000000 89.999557,164.000610 89.999557,164.000610 
z"/>
<path fill="#3B7F30" opacity="1.000000" stroke="none" 
	d="
M114.895454,29.959015 
	C109.415390,29.984058 104.312408,29.984058 99.209427,29.984058 
	C99.207069,29.682392 99.204704,29.380724 99.202339,29.079058 
	C104.553337,29.079058 109.904350,29.077038 115.255310,29.090815 
	C115.387817,29.091156 115.645439,29.318256 115.631653,29.351645 
	C115.545761,29.559710 115.399071,29.742680 114.895454,29.959015 
z"/>
<path fill="#529647" opacity="1.000000" stroke="none" 
	d="
M60.512939,138.080139 
	C62.115032,137.622162 64.128189,137.193268 66.544540,136.824463 
	C64.939827,137.292755 62.931915,137.700989 60.512939,138.080139 
z"/>
<path fill="#3B7C30" opacity="1.000000" stroke="none" 
	d="
M106.502335,163.985947 
	C107.064796,163.602554 107.623032,163.508667 108.181274,163.414780 
	C108.175659,163.810196 108.170036,164.205612 108.164421,164.601044 
	C107.608978,164.492508 107.053543,164.383987 106.502335,163.985947 
z"/>
<path fill="#3B7F30" opacity="1.000000" stroke="none" 
	d="
M119.072182,30.639404 
	C119.575066,30.316137 120.235176,30.184940 120.895287,30.053743 
	C120.929535,30.260372 120.963783,30.467001 120.998032,30.673628 
	C120.408493,30.726244 119.818954,30.778858 119.072182,30.639404 
z"/>
<path fill="#3B7F30" opacity="1.000000" stroke="none" 
	d="
M124.714966,31.857376 
	C124.301559,31.726225 124.099525,31.558033 123.897499,31.389841 
	C124.191795,31.311632 124.486084,31.233423 124.780380,31.155214 
	C124.829033,31.376921 124.877686,31.598627 124.714966,31.857376 
z"/>
<path fill="#3B7C30" opacity="1.000000" stroke="none" 
	d="
M90.000458,163.999695 
	C89.369301,163.962601 88.737686,163.925812 88.106071,163.889023 
	C88.109047,163.734924 88.112022,163.580841 88.114998,163.426743 
	C88.630508,163.467239 89.146019,163.507736 89.830544,163.774414 
	C89.999557,164.000610 90.000000,164.000000 90.000458,163.999695 
z"/>
<path fill="#529647" opacity="1.000000" stroke="none" 
	d="
M71.234055,136.008392 
	C71.576080,135.769287 71.989075,135.785873 72.697037,135.899994 
	C72.429672,136.086395 71.867355,136.175247 71.234055,136.008392 
z"/>
<path fill="#529647" opacity="1.000000" stroke="none" 
	d="
M67.142929,136.911697 
	C67.085564,136.643326 67.334694,136.460892 67.865173,136.298630 
	C67.860718,136.472092 67.628357,136.698364 67.142929,136.911697 
z"/>
<path fill="#F0F1F0" opacity="1.000000" stroke="none" 
	d="
M298.937439,55.925724 
	C299.059387,55.578487 299.393341,55.431961 299.727264,55.285431 
	C299.782471,55.537071 299.837646,55.788712 299.746216,56.269264 
	C299.449554,56.374260 299.299500,56.250343 298.937439,55.925724 
z"/>
<path fill="#E9EBE9" opacity="1.000000" stroke="none" 
	d="
M223.361053,44.326374 
	C225.670731,39.370441 232.127838,36.302696 236.486923,38.297329 
	C237.270554,38.655903 237.738663,41.841824 237.063385,42.898933 
	C233.120071,49.072132 228.604111,54.664898 219.559372,52.478302 
	C220.749146,49.910244 221.966339,47.282997 223.361053,44.326374 
z"/>
<path fill="#F0F1F0" opacity="1.000000" stroke="none" 
	d="
M223.966156,60.029747 
	C223.652939,59.905643 223.508514,59.615250 223.364090,59.324852 
	C223.599731,59.285484 223.835373,59.246117 224.266739,59.363838 
	C224.462463,59.520924 224.134964,59.863457 223.966156,60.029747 
z"/>
<path fill="#E4E7E4" opacity="1.000000" stroke="none" 
	d="
M340.545990,58.161705 
	C339.406921,58.082363 338.653503,58.003456 337.181305,57.849266 
	C341.148865,53.265499 344.672699,49.194344 348.368652,44.924351 
	C349.279541,51.450703 345.474762,57.973904 340.545990,58.161705 
z"/>
<path fill="#336A2A" opacity="1.000000" stroke="none" 
	d="
M130.581604,99.580170 
	C119.847908,110.498543 109.361038,121.163391 99.241020,131.455170 
	C91.560783,124.102112 84.346451,117.248848 77.226997,110.298401 
	C76.489517,109.578415 75.952820,108.285233 75.939117,107.249847 
	C75.833946,99.306381 75.881325,91.360901 75.881325,81.753693 
	C83.355110,90.103264 89.921448,97.439056 96.796410,105.119637 
	C111.610573,90.778168 124.897942,77.914787 138.912079,64.347824 
	C138.912079,73.399666 139.728134,81.579018 138.545776,89.458504 
	C138.006409,93.052956 133.523010,96.055588 130.581604,99.580170 
z"/>
<path fill="#5EA154" opacity="1.000000" stroke="none" 
	d="
M160.518250,109.206604 
	C160.004684,109.132881 159.717178,108.713333 159.099548,108.099915 
	C158.520874,100.553604 158.272339,93.201164 158.045135,85.417686 
	C158.505600,84.992210 158.944702,84.997787 159.713104,84.995758 
	C162.628891,92.876518 162.541870,100.843498 160.518250,109.206604 
z"/>
<path fill="#5EA154" opacity="1.000000" stroke="none" 
	d="
M158.444550,109.605042 
	C158.611252,110.059990 158.528809,110.774139 158.168762,111.728241 
	C157.992584,111.266884 158.093994,110.565567 158.444550,109.605042 
z"/>
</svg>